<?xml version="1.0" encoding="UTF-8" standalone="no"?>
<!-- Created with Inkscape (http://www.inkscape.org/) -->

<svg
   xmlns:osb="http://www.openswatchbook.org/uri/2009/osb"
   xmlns:dc="http://purl.org/dc/elements/1.1/"
   xmlns:cc="http://creativecommons.org/ns#"
   xmlns:rdf="http://www.w3.org/1999/02/22-rdf-syntax-ns#"
   xmlns:svg="http://www.w3.org/2000/svg"
   xmlns="http://www.w3.org/2000/svg"
   xmlns:xlink="http://www.w3.org/1999/xlink"
   xmlns:sodipodi="http://sodipodi.sourceforge.net/DTD/sodipodi-0.dtd"
   xmlns:inkscape="http://www.inkscape.org/namespaces/inkscape"
   width="210mm"
   height="297mm"
   viewBox="0 0 210 297"
   version="1.1"
   id="svg8"
   inkscape:version="0.92.3 (2405546, 2018-03-11)"
   sodipodi:docname="drawing.svg"
   inkscape:export-filename="/home/yucklys/favicon-16x16.png"
   inkscape:export-xdpi="6.4148784"
   inkscape:export-ydpi="6.4148784">
  <defs
     id="defs2">
    <linearGradient
       inkscape:collect="always"
       id="linearGradient1296">
      <stop
         style="stop-color:#002993;stop-opacity:1"
         offset="0"
         id="stop1292" />
      <stop
         style="stop-color:#000000;stop-opacity:0;"
         offset="1"
         id="stop1294" />
    </linearGradient>
    <linearGradient
       id="linearGradient1026"
       osb:paint="gradient">
      <stop
         style="stop-color:#000080;stop-opacity:1;"
         offset="0"
         id="stop1022" />
      <stop
         style="stop-color:#008fc1;stop-opacity:1"
         offset="1"
         id="stop1024" />
    </linearGradient>
    <linearGradient
       id="linearGradient959">
      <stop
         style="stop-color:#00edff;stop-opacity:1"
         offset="0"
         id="stop981" />
    </linearGradient>
    <linearGradient
       id="linearGradient959-7">
      <stop
         id="stop966"
         offset="0"
         style="stop-color:#00ffff;stop-opacity:1;" />
    </linearGradient>
    <linearGradient
       id="linearGradient959-6"
       osb:paint="solid">
      <stop
         style="stop-color:#00ffff;stop-opacity:1;"
         offset="0"
         id="stop957" />
    </linearGradient>
    <inkscape:perspective
       sodipodi:type="inkscape:persp3d"
       inkscape:vp_x="0 : 148.5 : 1"
       inkscape:vp_y="0 : 1000 : 0"
       inkscape:vp_z="210 : 148.5 : 1"
       inkscape:persp3d-origin="105 : 99 : 1"
       id="perspective4970" />
    <linearGradient
       inkscape:collect="always"
       xlink:href="#linearGradient1026"
       id="linearGradient1036"
       gradientUnits="userSpaceOnUse"
       x1="391.30783"
       y1="559.86469"
       x2="391.30783"
       y2="451.52588"
       spreadMethod="pad"
       gradientTransform="matrix(0.26458333,0,0,0.26458333,-34.968649,-17.803078)" />
    <linearGradient
       inkscape:collect="always"
       xlink:href="#linearGradient1296"
       id="linearGradient1298"
       x1="391.30783"
       y1="483.59818"
       x2="391.30783"
       y2="437.38373"
       gradientUnits="userSpaceOnUse"
       spreadMethod="pad"
       gradientTransform="matrix(0.26458333,0,0,0.27514679,-34.968649,-22.362693)" />
  </defs>
  <sodipodi:namedview
     id="base"
     pagecolor="#ffffff"
     bordercolor="#666666"
     borderopacity="1.0"
     inkscape:pageopacity="0.0"
     inkscape:pageshadow="2"
     inkscape:zoom="1.4"
     inkscape:cx="496.82889"
     inkscape:cy="708.72541"
     inkscape:document-units="mm"
     inkscape:current-layer="layer1"
     showgrid="false"
     inkscape:object-paths="false"
     inkscape:snap-text-baseline="false"
     inkscape:snap-intersection-paths="false"
     inkscape:snap-midpoints="false"
     inkscape:object-nodes="true"
     inkscape:window-width="1920"
     inkscape:window-height="1045"
     inkscape:window-x="0"
     inkscape:window-y="0"
     inkscape:window-maximized="1"
     inkscape:measure-start="223.496,759.887"
     inkscape:measure-end="222.991,759.887"
     showguides="true"
     inkscape:guide-bbox="true" />
  <metadata
     id="metadata5">
    <rdf:RDF>
      <cc:Work
         rdf:about="">
        <dc:format>image/svg+xml</dc:format>
        <dc:type
           rdf:resource="http://purl.org/dc/dcmitype/StillImage" />
        <dc:title />
      </cc:Work>
    </rdf:RDF>
  </metadata>
  <g
     inkscape:groupmode="layer"
     id="layer2"
     inkscape:label="Layer 2">
    <path
       style="opacity:1;fill:#000000;fill-opacity:0;stroke:none;stroke-width:0.06681738;stroke-opacity:1"
       d="m 66.477037,104.01552 c -1.018617,-0.0797 -2.968649,-0.32629 -4.140062,-0.52365 -2.309591,-0.3891 -4.479333,-0.89306 -10.359308,-2.40608 C 45.60872,99.44695 41.795833,98.77974 38.092775,98.65611 l -1.323223,-0.0442 15.874111,-10.91304 c 8.73076,-6.00217 15.898047,-10.903227 15.927302,-10.891234 0.02926,0.01199 7.262347,4.922854 16.073533,10.913034 l 16.020342,10.89124 -1.263509,0.0434 c -2.048438,0.0704 -3.921079,0.2665 -6.297567,0.65937 -2.544879,0.42071 -4.232772,0.80237 -10.189652,2.30403 -7.909893,1.994 -10.064202,2.36458 -13.964832,2.40223 -1.175986,0.0114 -2.288495,0.009 -2.472243,-0.005 z"
       id="path1252"
       inkscape:connector-curvature="0" />
    <path
       style="opacity:1;fill:#f9f9f9;fill-opacity:0;stroke:none;stroke-width:0.06681738;stroke-opacity:1"
       d="m 66.477037,104.01552 c -1.018617,-0.0797 -2.968649,-0.32629 -4.140062,-0.52365 -2.309591,-0.3891 -4.479333,-0.89306 -10.359308,-2.40608 C 45.60872,99.44695 41.795833,98.77974 38.092775,98.65611 l -1.323223,-0.0442 15.874111,-10.91304 c 8.73076,-6.00217 15.898047,-10.903227 15.927302,-10.891234 0.02926,0.01199 7.262347,4.922854 16.073533,10.913034 l 16.020342,10.89124 -1.263509,0.0434 c -2.048438,0.0704 -3.921079,0.2665 -6.297567,0.65937 -2.544879,0.42071 -4.232772,0.80237 -10.189652,2.30403 -7.909893,1.994 -10.064202,2.36458 -13.964832,2.40223 -1.175986,0.0114 -2.288495,0.009 -2.472243,-0.005 z"
       id="path1254"
       inkscape:connector-curvature="0" />
    <path
       style="opacity:1;fill:#00ffff;fill-opacity:0;stroke:none;stroke-width:0.06681738;stroke-opacity:1"
       d="m 66.477037,104.01552 c -1.018617,-0.0797 -2.968649,-0.32629 -4.140062,-0.52365 -2.309591,-0.3891 -4.479333,-0.89306 -10.359308,-2.40608 C 45.60872,99.44695 41.795833,98.77974 38.092775,98.65611 l -1.323223,-0.0442 15.874111,-10.91304 c 8.73076,-6.00217 15.898047,-10.903227 15.927302,-10.891234 0.02926,0.01199 7.262347,4.922854 16.073533,10.913034 l 16.020342,10.89124 -1.263509,0.0434 c -2.048438,0.0704 -3.921079,0.2665 -6.297567,0.65937 -2.544879,0.42071 -4.232772,0.80237 -10.189652,2.30403 -7.909893,1.994 -10.064202,2.36458 -13.964832,2.40223 -1.175986,0.0114 -2.288495,0.009 -2.472243,-0.005 z"
       id="path1256"
       inkscape:connector-curvature="0" />
    <path
       style="opacity:1;fill:#00ffff;fill-opacity:0;stroke:none;stroke-width:0.06681738;stroke-opacity:1"
       d="m 66.477037,104.01552 c -1.018617,-0.0797 -2.968649,-0.32629 -4.140062,-0.52365 -2.309591,-0.3891 -4.479333,-0.89306 -10.359308,-2.40608 C 45.60872,99.44695 41.795833,98.77974 38.092775,98.65611 l -1.323223,-0.0442 15.874111,-10.91304 c 8.73076,-6.00217 15.898047,-10.903227 15.927302,-10.891234 0.02926,0.01199 7.262347,4.922854 16.073533,10.913034 l 16.020342,10.89124 -1.263509,0.0434 c -2.048438,0.0704 -3.921079,0.2665 -6.297567,0.65937 -2.544879,0.42071 -4.232772,0.80237 -10.189652,2.30403 -7.909893,1.994 -10.064202,2.36458 -13.964832,2.40223 -1.175986,0.0114 -2.288495,0.009 -2.472243,-0.005 z"
       id="path1258"
       inkscape:connector-curvature="0" />
    <path
       style="opacity:1;fill:#00ffff;fill-opacity:0;stroke:none;stroke-width:0.06681738;stroke-opacity:1"
       d="m 66.477037,104.01552 c -1.018617,-0.0797 -2.968649,-0.32629 -4.140062,-0.52365 -2.309591,-0.3891 -4.479333,-0.89306 -10.359308,-2.40608 C 45.60872,99.44695 41.795833,98.77974 38.092775,98.65611 l -1.323223,-0.0442 15.874111,-10.91304 c 8.73076,-6.00217 15.898047,-10.903227 15.927302,-10.891234 0.02926,0.01199 7.262347,4.922854 16.073533,10.913034 l 16.020342,10.89124 -1.263509,0.0434 c -2.048438,0.0704 -3.921079,0.2665 -6.297567,0.65937 -2.544879,0.42071 -4.232772,0.80237 -10.189652,2.30403 -7.909893,1.994 -10.064202,2.36458 -13.964832,2.40223 -1.175986,0.0114 -2.288495,0.009 -2.472243,-0.005 z"
       id="path1260"
       inkscape:connector-curvature="0" />
    <path
       style="opacity:1;fill:#00ffff;fill-opacity:0;stroke:none;stroke-width:0.06681738;stroke-opacity:1"
       d="m 66.343401,104.00178 c -1.318638,-0.10767 -2.581103,-0.26752 -3.964466,-0.50198 -2.45817,-0.41663 -3.01257,-0.54644 -11.637391,-2.72478 -3.649922,-0.92185 -5.669772,-1.34003 -8.282628,-1.7148 -1.506302,-0.21605 -3.393802,-0.39595 -4.27904,-0.40785 -0.312372,-0.004 -0.741444,-0.0269 -0.953495,-0.0505 l -0.385548,-0.0429 15.742409,-10.82442 c 8.658323,-5.95343 15.796805,-10.850119 15.863292,-10.881533 0.09609,-0.0454 3.414954,2.181801 16.179747,10.857823 l 16.058859,10.91494 -1.401966,0.043 c -4.018172,0.12311 -7.565684,0.73761 -14.86567,2.57503 -5.285925,1.33049 -5.257308,1.32345 -6.735884,1.65669 -2.164472,0.48783 -4.062317,0.81168 -5.926011,1.01122 -1.11933,0.11985 -4.382341,0.17414 -5.412208,0.0901 z"
       id="path1262"
       inkscape:connector-curvature="0" />
    <path
       style="opacity:1;fill:#00ffff;fill-opacity:0;stroke:none;stroke-width:0.06681738;stroke-opacity:1"
       d="m 66.343401,104.00178 c -1.318638,-0.10767 -2.581103,-0.26752 -3.964466,-0.50198 -2.45817,-0.41663 -3.01257,-0.54644 -11.637391,-2.72478 -3.649922,-0.92185 -5.669772,-1.34003 -8.282628,-1.7148 -1.506302,-0.21605 -3.393802,-0.39595 -4.27904,-0.40785 -0.312372,-0.004 -0.741444,-0.0269 -0.953495,-0.0505 l -0.385548,-0.0429 15.742409,-10.82442 c 8.658323,-5.95343 15.796805,-10.850119 15.863292,-10.881533 0.09609,-0.0454 3.414954,2.181801 16.179747,10.857823 l 16.058859,10.91494 -1.401966,0.043 c -4.018172,0.12311 -7.565684,0.73761 -14.86567,2.57503 -5.285925,1.33049 -5.257308,1.32345 -6.735884,1.65669 -2.164472,0.48783 -4.062317,0.81168 -5.926011,1.01122 -1.11933,0.11985 -4.382341,0.17414 -5.412208,0.0901 z"
       id="path1264"
       inkscape:connector-curvature="0" />
    <path
       style="opacity:1;fill:#00ffff;fill-opacity:0.86499999;stroke:none;stroke-width:0.03635129;stroke-opacity:1"
       d="m 62.39862,104.07248 c -2.619395,-0.10894 -5.087841,-0.39389 -8.28073,-0.9559 -1.849109,-0.32549 -3.767572,-0.72012 -7.523469,-1.54762 l -2.15378,-0.47452 v -1.1702 l -7.98151,-1.23448 c 9.893963,0.47235 24.531058,-2.31161 32.06685,-2.28198 7.06944,0.0278 22.88538,2.98438 32.269969,2.24294 -4.032329,0.33543 -7.654119,0.92178 -13.552079,2.19403 -1.39553,0.30103 -6.25126,1.5334 -7.62516,1.82968 -6.02491,1.29925 -8.79585,1.619 -12.41442,1.78795 -0.64862,0.0303 -4.18324,-0.3635 -4.805671,-0.3894 z"
       id="path1278"
       inkscape:connector-curvature="0"
       sodipodi:nodetypes="ccscccscscccc" />
    <path
       style="opacity:1;fill:url(#linearGradient1298);fill-opacity:1;stroke:none;stroke-width:0.06813817;stroke-opacity:1"
       d="m 66.830471,104.36792 c -3.956332,-0.33025 -6.200271,-0.76062 -11.960308,-2.29395 -9.127805,-2.42982 -11.275282,-2.8715 -15.768902,-3.2432 -0.146997,-0.0122 0.197387,-0.0273 0.765302,-0.0338 3.385127,-0.0383 7.515251,-0.38495 15.872227,-1.33221 7.83535,-0.88814 9.903751,-1.06224 12.628481,-1.06297 1.02899,-2.7e-4 2.30687,0.0367 2.83974,0.0822 2.3683,0.20214 4.21959,0.3957 8.71967,0.9117 8.88424,1.01871 11.39918,1.24522 15.46644,1.39299 1.11988,0.0407 2.04329,0.0814 2.05202,0.0905 0.009,0.009 -0.39638,0.0568 -0.90025,0.10613 -3.25958,0.31886 -6.21969,0.93937 -13.1437,2.75525 -2.38873,0.62645 -4.95953,1.28242 -5.71289,1.45769 -2.54408,0.59189 -4.98253,0.98762 -7.04924,1.14401 -0.85266,0.0645 -3.15714,0.08 -3.80859,0.0257 z"
       id="path1280"
       inkscape:connector-curvature="0" />
    <path
       style="opacity:1;fill:#ffffff;fill-opacity:1;stroke:none;stroke-width:0.04724703;stroke-opacity:1"
       d="m 38.814826,98.70121 c -0.259858,-0.0186 -0.791387,-0.0379 -1.181174,-0.0428 -0.389789,-0.005 -0.744276,-0.0233 -0.787747,-0.041 -0.05688,-0.0231 4.372446,-3.09239 15.796625,-10.94618 8.731618,-6.00274 15.886025,-10.911199 15.898683,-10.907696 0.01265,0.0035 7.260233,4.925466 16.105722,10.937686 l 16.082715,10.93132 -1.144544,0.0452 c -1.589712,0.0628 -4.971034,0.0556 -6.105472,-0.013 -3.638174,-0.21977 -6.294014,-0.4676 -12.992933,-1.21243 -8.416044,-0.93576 -10.338343,-1.08243 -13.229167,-1.00935 -2.387693,0.0604 -4.793607,0.27414 -11.882625,1.05582 -7.101615,0.78307 -10.448663,1.06791 -14.150483,1.20423 -1.37459,0.0506 -1.681647,0.0504 -2.4096,-0.002 z"
       id="path36"
       inkscape:connector-curvature="0" />
    <path
       style="opacity:1;fill:#ffffff;fill-opacity:1;stroke:none;stroke-width:0.04724703;stroke-opacity:1"
       d="m 38.814826,98.70121 c -0.259858,-0.0186 -0.791387,-0.0379 -1.181174,-0.0428 -0.389789,-0.005 -0.744276,-0.0233 -0.787747,-0.041 -0.05688,-0.0231 4.372446,-3.09239 15.796625,-10.94618 8.731618,-6.00274 15.886025,-10.911199 15.898683,-10.907696 0.01265,0.0035 7.260243,4.925466 16.105746,10.937686 l 16.082731,10.93132 -0.884703,0.0302 c -5.792168,0.19744 -7.961534,0.0581 -20.326849,-1.30573 -7.381148,-0.8141 -9.246106,-0.95617 -11.882628,-0.90517 -2.611869,0.0505 -4.516824,0.21308 -11.727283,1.00085 -7.657277,0.83658 -10.584506,1.09073 -14.400318,1.25029 -1.230998,0.0515 -1.957906,0.051 -2.693083,-0.002 z"
       id="path38"
       inkscape:connector-curvature="0" />
  </g>
  <g
     inkscape:label="Layer 1"
     inkscape:groupmode="layer"
     id="layer1">
    <path
       style="fill:none;stroke:#000080;stroke-width:0.26458332px;stroke-linecap:butt;stroke-linejoin:miter;stroke-opacity:1"
       d="m 68.531471,76.57321 -25.35303,17.4302 -6.71931,4.61953 32.10575,40.92901 32.406429,-40.92901 z"
       id="path102"
       inkscape:connector-curvature="0"
       sodipodi:nodetypes="cccccc" />
    <path
       style="fill:url(#linearGradient1036);fill-opacity:1;stroke:none;stroke-width:0.06681738;stroke-opacity:1"
       d="M 52.686414,119.20883 C 43.964097,107.99942 36.6368,98.63954 36.6368,98.63954 c 11.4857,0.0224 21.599757,5.47146 31.961502,5.46893 10.013974,-0.002 20.259291,-5.45604 32.197648,-5.45774 l -16.124613,20.45781 c -8.790154,11.15234 -16.057308,20.3948 -16.106457,20.44341 -0.07439,0.0736 -2.677112,-3.37754 -15.878466,-20.34313 z"
       id="path1006"
       inkscape:connector-curvature="0"
       sodipodi:nodetypes="ccscsccc" />
    <text
       xml:space="preserve"
       style="font-style:normal;font-variant:normal;font-weight:normal;font-stretch:normal;font-size:23.87247086px;line-height:1.25;font-family:'Ubuntu Mono';-inkscape-font-specification:'Ubuntu Mono, Normal';font-variant-ligatures:normal;font-variant-caps:normal;font-variant-numeric:normal;font-feature-settings:normal;text-align:start;letter-spacing:0px;word-spacing:0px;writing-mode:lr-tb;text-anchor:start;fill:#000080;fill-opacity:1;stroke:none;stroke-width:0.59681147;"
       x="93.898216"
       y="127.39505"
       id="text40"
       transform="scale(0.94621452,1.0568428)"><tspan
         sodipodi:role="line"
         id="tspan38"
         x="93.898216"
         y="127.39505"
         style="font-style:normal;font-variant:normal;font-weight:normal;font-stretch:normal;font-size:23.87247086px;font-family:'Ubuntu Mono';-inkscape-font-specification:'Ubuntu Mono, Normal';font-variant-ligatures:normal;font-variant-caps:normal;font-variant-numeric:normal;font-feature-settings:normal;text-align:start;writing-mode:lr-tb;text-anchor:start;stroke-width:0.59681147;fill:#000080;">Yucklys</tspan></text>
    <path
       style="fill:none;stroke:#0000ff;stroke-width:0.26458332px;stroke-linecap:butt;stroke-linejoin:miter;stroke-opacity:1"
       d="m 68.564881,139.55195 107.958059,0.0115"
       id="path44"
       inkscape:connector-curvature="0"
       sodipodi:nodetypes="cc" />
  </g>
</svg>
